<svg xmlns="http://www.w3.org/2000/svg" viewBox="0 0 128 128">
  <defs>
    <linearGradient id="bg" x1="0" y1="0" x2="1" y2="1">
      <stop offset="0" stop-color="#FFD9EC"/>
      <stop offset="1" stop-color="#FFEFEF"/>
    </linearGradient>
  </defs>
  <rect width="128" height="128" rx="28" fill="url(#bg)"/>
  <circle cx="64" cy="66" r="34" fill="#FFF7FB" stroke="#E8BFD6" stroke-width="3"/>
  <path d="M40 46l9-12 8 14M88 46l-9-12-8 14" fill="#FFF7FB" stroke="#E8BFD6" stroke-width="3" stroke-linejoin="round"/>
  <circle cx="53" cy="65" r="3.6" fill="#7B6372"/>
  <circle cx="75" cy="65" r="3.6" fill="#7B6372"/>
  <path d="M57 76c4 5 10 5 14 0" stroke="#7B6372" stroke-width="3.2" stroke-linecap="round" fill="none"/>
  <path d="M83 36c8 0 13 7 13 13-6 0-13-5-13-13z" fill="#FF8DBF"/>
  <path d="M88 38c7 0 11 6 11 11-5 0-11-4-11-11z" fill="#FFD1E7"/>
</svg>
